<svg width="47" height="47" viewBox="0 0 47 47" fill="none" xmlns="http://www.w3.org/2000/svg">
<g id="angle-down_8442683 1">
<path id="angles-down" d="M38.2463 22.462C38.3827 22.5983 38.4909 22.76 38.5648 22.9381C38.6386 23.1162 38.6766 23.3071 38.6766 23.4999C38.6766 23.6927 38.6386 23.8836 38.5648 24.0617C38.4909 24.2398 38.3827 24.4016 38.2463 24.5379L24.5379 38.2462C24.4018 38.3829 24.2401 38.4913 24.062 38.5653C23.8838 38.6393 23.6929 38.6774 23.5 38.6774C23.3071 38.6774 23.1162 38.6393 22.938 38.5653C22.7599 38.4913 22.5982 38.3829 22.4621 38.2462L8.75375 24.5379C8.49431 24.2594 8.35307 23.8912 8.35979 23.5107C8.3665 23.1302 8.52064 22.7671 8.78974 22.498C9.05885 22.2289 9.42189 22.0748 9.8024 22.0681C10.1829 22.0613 10.5512 22.2026 10.8296 22.462L23.5 35.1305L36.1704 22.462C36.3067 22.3256 36.4684 22.2174 36.6465 22.1435C36.8246 22.0697 37.0155 22.0317 37.2083 22.0317C37.4011 22.0317 37.592 22.0697 37.7701 22.1435C37.9482 22.2174 38.11 22.3256 38.2463 22.462ZM22.4621 24.5379C22.5982 24.6745 22.7599 24.783 22.938 24.8569C23.1162 24.9309 23.3071 24.969 23.5 24.969C23.6929 24.969 23.8838 24.9309 24.062 24.8569C24.2401 24.783 24.4018 24.6745 24.5379 24.5379L38.2463 10.8295C38.5057 10.5511 38.6469 10.1828 38.6402 9.80234C38.6335 9.42183 38.4794 9.05878 38.2103 8.78968C37.9412 8.52058 37.5781 8.36644 37.1976 8.35973C36.8171 8.35301 36.4488 8.49425 36.1704 8.75369L23.5 21.4222L10.8296 8.75369C10.5512 8.49425 10.1829 8.35301 9.8024 8.35973C9.42189 8.36644 9.05885 8.52058 8.78974 8.78968C8.52064 9.05878 8.3665 9.42183 8.35979 9.80234C8.35307 10.1828 8.49431 10.5511 8.75375 10.8295L22.4621 24.5379Z" fill="black"/>
</g>
</svg>
